<?xml version="1.0" standalone="no"?>
<!DOCTYPE svg PUBLIC "-//W3C//DTD SVG 20010904//EN"
 "http://www.w3.org/TR/2001/REC-SVG-20010904/DTD/svg10.dtd">
<svg version="1.0" xmlns="http://www.w3.org/2000/svg"
 width="512.000000pt" height="512.000000pt" viewBox="0 0 512.000000 512.000000"
 preserveAspectRatio="xMidYMid meet">
<metadata>
Created by potrace 1.15, written by Peter Selinger 2001-2017
</metadata>
<g transform="translate(0.000000,512.000000) scale(0.100000,-0.100000)"
fill="#000000" stroke="none">
<path d="M203 4958 c-174 -172 -196 -198 -191 -231 3 -19 32 5 192 163 103
102 192 193 197 203 8 14 5 17 -17 17 -21 0 -60 -33 -181 -152z"/>
<path d="M303 4858 c-140 -139 -264 -265 -275 -281 -10 -15 -18 -37 -16 -50 3
-18 49 23 292 263 158 157 292 293 297 303 8 14 5 17 -17 17 -22 0 -75 -47
-281 -252z"/>
<path d="M402 4758 c-194 -194 -362 -365 -373 -381 -11 -15 -19 -37 -17 -50 4
-18 67 40 392 363 213 212 392 393 397 403 8 14 5 17 -18 17 -22 0 -89 -62
-381 -352z"/>
<path d="M502 4658 c-249 -249 -462 -465 -473 -481 -11 -15 -19 -37 -17 -50 4
-18 84 57 492 463 268 267 492 493 497 503 8 14 5 17 -18 17 -22 0 -104 -76
-481 -452z"/>
<path d="M602 4558 c-304 -304 -562 -565 -573 -581 -11 -15 -19 -37 -17 -50 4
-18 101 75 592 563 323 322 592 593 597 603 8 14 5 17 -18 17 -23 0 -118 -91
-581 -552z"/>
<path d="M702 4458 c-359 -359 -662 -665 -673 -681 -11 -15 -19 -37 -17 -50 4
-18 118 92 692 663 378 377 692 693 697 703 8 14 5 17 -18 17 -23 0 -133 -106
-681 -652z"/>
<path d="M802 4358 c-414 -414 -762 -765 -773 -781 -11 -15 -19 -37 -17 -50 4
-18 136 109 792 763 433 432 792 793 797 803 8 14 5 17 -18 17 -23 0 -148
-120 -781 -752z"/>
<path d="M902 4258 c-469 -469 -862 -865 -873 -881 -11 -15 -19 -37 -17 -50 4
-18 153 126 892 863 488 487 892 893 897 903 8 14 5 17 -18 17 -23 0 -162
-135 -881 -852z"/>
<path d="M1002 4158 c-524 -524 -962 -965 -973 -981 -11 -15 -19 -37 -17 -50
4 -18 170 144 992 963 543 542 992 993 997 1003 8 14 5 17 -18 17 -23 0 -177
-149 -981 -952z"/>
<path d="M1102 4058 c-579 -579 -1062 -1065 -1073 -1081 -11 -15 -19 -37 -17
-50 4 -18 188 161 1092 1063 598 597 1092 1093 1097 1103 8 14 5 17 -18 17
-23 0 -191 -164 -1081 -1052z"/>
<path d="M1202 3958 c-634 -634 -1162 -1165 -1173 -1181 -11 -15 -19 -37 -17
-50 4 -18 205 178 1192 1163 653 652 1192 1193 1197 1203 8 14 5 17 -18 17
-23 0 -206 -178 -1181 -1152z"/>
<path d="M1302 3858 c-689 -689 -1262 -1265 -1273 -1281 -11 -15 -19 -37 -17
-50 4 -18 222 195 1292 1263 708 707 1292 1293 1297 1303 8 14 5 17 -18 17
-23 0 -220 -193 -1281 -1252z"/>
<path d="M1402 3758 c-744 -744 -1362 -1365 -1373 -1381 -11 -15 -19 -37 -17
-50 4 -18 239 213 1392 1363 763 762 1392 1393 1397 1403 8 14 5 17 -18 17
-23 0 -235 -207 -1381 -1352z"/>
<path d="M1502 3658 c-799 -799 -1462 -1465 -1473 -1481 -11 -15 -19 -37 -17
-50 4 -18 257 230 1492 1463 818 817 1492 1493 1497 1503 8 14 5 17 -18 17
-23 0 -250 -222 -1481 -1452z"/>
<path d="M1602 3558 c-854 -854 -1562 -1565 -1573 -1581 -11 -15 -19 -37 -17
-50 4 -18 274 247 1592 1563 873 872 1592 1593 1597 1603 8 14 5 17 -18 17
-24 0 -264 -236 -1581 -1552z"/>
<path d="M1702 3458 c-909 -909 -1662 -1665 -1673 -1681 -11 -15 -19 -37 -17
-50 4 -18 291 264 1692 1663 928 927 1692 1693 1697 1703 8 14 5 17 -18 17
-24 0 -279 -251 -1681 -1652z"/>
<path d="M1802 3358 c-964 -964 -1762 -1765 -1773 -1781 -11 -15 -19 -37 -17
-50 4 -18 308 282 1792 1763 983 982 1792 1793 1797 1803 8 14 5 17 -18 17
-24 0 -293 -265 -1781 -1752z"/>
<path d="M1902 3258 c-1019 -1019 -1862 -1865 -1873 -1881 -11 -15 -19 -37
-17 -50 3 -19 18 -8 112 83 60 58 104 96 98 85 -5 -11 -13 -47 -17 -80 -7 -59
-9 -62 -101 -157 -69 -71 -94 -104 -94 -122 0 -15 3 -26 6 -26 4 0 42 35 86
77 l80 78 -7 -70 -7 -70 -79 -82 c-56 -59 -79 -90 -79 -108 0 -14 3 -25 6 -25
3 0 35 28 71 62 l65 63 -7 -70 c-8 -69 -9 -71 -71 -138 -43 -45 -64 -75 -64
-92 0 -14 2 -25 5 -25 3 0 29 21 56 47 l51 48 -7 -70 c-7 -65 -11 -73 -56
-123 -30 -33 -49 -63 -49 -78 0 -13 2 -24 5 -24 2 0 21 15 41 33 l37 32 -6
-49 c-4 -27 -7 -57 -7 -66 0 -9 -16 -37 -35 -61 -19 -24 -35 -55 -35 -68 0
-23 1 -23 25 -7 l26 17 -7 -68 c-4 -41 -14 -79 -25 -95 -11 -14 -19 -36 -19
-48 0 -21 1 -21 23 -7 22 14 25 13 51 -19 l27 -35 -27 -32 c-27 -32 -27 -32
-5 -35 12 -2 37 7 55 21 25 20 47 26 98 29 59 3 65 1 54 -12 -44 -52 1 -57 60
-6 30 25 52 35 94 40 30 4 64 10 75 13 15 5 11 -4 -18 -36 -20 -22 -37 -43
-37 -46 0 -3 11 -5 24 -5 15 0 45 19 78 49 44 41 62 50 103 56 28 3 61 8 75
11 21 5 17 -2 -28 -50 -29 -30 -52 -57 -52 -60 0 -3 11 -6 25 -6 17 0 47 21
93 64 59 56 74 65 117 71 28 3 61 8 75 11 20 5 13 -7 -43 -64 -37 -39 -67 -73
-67 -76 0 -3 11 -6 25 -6 18 0 49 23 108 79 70 67 88 80 127 85 25 4 59 10 75
13 27 5 23 -2 -52 -80 -46 -46 -83 -87 -83 -91 0 -3 11 -6 26 -6 18 0 51 25
122 94 78 76 104 95 135 100 20 3 54 9 75 12 l37 6 -98 -100 c-53 -54 -97
-102 -97 -106 0 -3 12 -6 27 -6 23 0 324 296 1911 1882 1036 1036 1892 1895
1903 1911 11 15 19 37 17 49 -3 21 -5 21 -45 -15 l-41 -38 19 62 c10 33 19 70
19 81 0 10 11 34 25 52 14 18 25 43 25 56 0 21 -1 22 -24 7 l-23 -16 -7 55
c-6 51 -4 58 25 93 19 25 29 48 27 62 -3 23 -3 23 -39 -9 -20 -18 -39 -32 -41
-32 -3 0 -13 18 -23 40 l-18 39 62 66 c41 44 61 74 61 91 0 33 -18 23 -95 -55
l-59 -61 -33 32 -33 32 110 112 c83 85 110 119 110 139 0 37 -16 26 -145 -104
l-109 -111 -33 32 -33 32 160 162 c126 127 160 167 160 188 0 22 -3 25 -17 17
-10 -5 -90 -82 -178 -170 l-159 -161 -33 32 -33 32 210 211 c167 169 210 217
210 238 0 15 -3 27 -7 27 -4 0 -106 -99 -228 -220 l-221 -220 -32 33 -32 33
196 194 c107 107 200 203 205 213 8 14 5 17 -17 17 -22 0 -66 -39 -224 -195
l-196 -195 -32 33 -32 33 146 144 c80 80 150 153 155 163 8 14 5 17 -17 17
-20 0 -59 -32 -173 -145 l-147 -145 -32 33 -32 33 96 94 c114 114 125 130 89
130 -19 0 -51 -25 -123 -94 l-97 -94 -33 30 -34 29 56 59 c31 32 56 61 56 64
0 3 -11 6 -24 6 -15 0 -45 -19 -79 -50 l-55 -50 -39 17 c-21 10 -40 18 -42 20
-2 1 7 15 19 30 l22 28 -22 3 c-11 2 -35 -7 -53 -20 -27 -20 -41 -23 -89 -20
-53 4 -57 5 -48 23 9 16 7 19 -11 19 -12 0 -36 -11 -53 -23 -17 -13 -53 -29
-80 -36 -53 -13 -119 -44 -151 -70 -11 -9 8 14 43 51 34 36 62 69 62 72 0 3
-12 6 -27 6 -23 0 -319 -291 -1881 -1852z m1896 1295 c-165 -165 -189 -185
-203 -173 -14 12 -1 29 127 158 138 139 215 202 247 202 9 0 -68 -84 -171
-187z m304 166 l41 -21 -216 -216 -217 -217 -32 33 -33 32 205 205 c113 113
206 205 208 205 1 0 21 -9 44 -21z m-77 -339 l-215 -215 -32 33 -33 32 215
215 214 215 33 -32 34 -32 -216 -216z m305 112 c0 -4 -94 -102 -210 -217
l-210 -210 -32 33 -33 32 215 215 215 216 28 -31 c15 -17 27 -34 27 -38z m75
-72 l29 -31 -212 -212 -212 -212 -32 33 -33 32 210 210 c115 116 212 210 216
210 3 0 18 -14 34 -30z m100 -100 l29 -31 -212 -212 -212 -212 -32 33 -33 32
210 210 c115 116 212 210 216 210 3 0 18 -14 34 -30z m100 -100 l29 -31 -212
-212 -212 -212 -32 33 -33 32 210 210 c115 116 212 210 216 210 3 0 18 -14 34
-30z m-1237 -73 c9 -10 -316 -340 -1420 -1442 -1252 -1252 -1430 -1426 -1424
-1395 5 30 201 230 1414 1443 774 774 1410 1407 1413 1407 4 0 11 -6 17 -13z
m1331 -23 c12 -15 21 -32 21 -38 0 -6 -92 -103 -205 -216 l-205 -205 -32 33
-33 32 210 210 c115 116 213 210 217 210 3 0 16 -12 27 -26z m-2711 -1581
c-821 -821 -1494 -1490 -1496 -1488 -2 2 1 34 7 71 l10 68 1453 1453 1453
1453 33 -32 33 -32 -1493 -1493z m2733 1380 c-11 -21 -89 -107 -173 -191
l-154 -153 -24 26 -24 26 194 195 c186 185 195 193 198 165 2 -16 -6 -47 -17
-68z m-2698 -1545 c-856 -856 -1559 -1556 -1561 -1554 -2 2 0 32 3 67 l7 64
1521 1522 1521 1523 34 -32 33 -32 -1558 -1558z m1625 1489 l32 -32 -1626
-1625 -1625 -1625 6 70 7 70 1586 1588 c873 873 1587 1587 1588 1587 0 0 14
-15 32 -33z m-1530 -1794 c-1143 -1142 -1672 -1664 -1690 -1669 l-28 -6 6 48
6 49 1651 1652 1652 1653 33 -32 33 -32 -1663 -1663z m166 -34 c-1291 -1291
-1603 -1598 -1628 -1603 -17 -2 -51 -8 -76 -11 -45 -7 -32 6 1595 1634 l1640
1641 33 -32 33 -32 -1597 -1597z m164 -36 c-1516 -1516 -1533 -1533 -1578
-1538 -25 -4 -58 -9 -75 -12 -24 -4 283 309 1545 1571 l1575 1576 33 -32 33
-32 -1533 -1533z m165 -35 l-1467 -1467 -56 -6 c-30 -4 -64 -9 -75 -12 -11 -3
659 675 1490 1506 l1510 1511 33 -32 33 -32 -1468 -1468z m142 -28 c-1232
-1232 -1414 -1411 -1445 -1416 -19 -3 -46 -7 -60 -10 -17 -3 445 465 1420
1440 l1445 1446 25 -25 25 -25 -1410 -1410z"/>
<path d="M3296 1850 c-999 -998 -1822 -1823 -1827 -1832 -8 -15 -5 -18 18 -18
24 0 298 270 1811 1783 981 980 1792 1794 1803 1810 11 15 19 37 17 50 -4 18
-314 -287 -1822 -1793z"/>
<path d="M3396 1750 c-944 -943 -1722 -1723 -1727 -1732 -8 -15 -5 -18 18 -18
24 0 283 255 1711 1683 926 925 1692 1694 1703 1710 11 15 19 37 17 50 -4 18
-296 -270 -1722 -1693z"/>
<path d="M3496 1650 c-889 -888 -1622 -1623 -1627 -1632 -8 -15 -5 -18 18 -18
24 0 269 241 1611 1583 871 870 1592 1594 1603 1610 11 15 19 37 17 50 -4 18
-279 -252 -1622 -1593z"/>
<path d="M3596 1550 c-834 -833 -1522 -1523 -1527 -1532 -8 -15 -5 -18 18 -18
23 0 254 226 1511 1483 816 815 1492 1494 1503 1510 11 15 19 37 17 50 -4 18
-262 -235 -1522 -1493z"/>
<path d="M3696 1450 c-779 -778 -1422 -1423 -1427 -1432 -8 -15 -5 -18 18 -18
23 0 239 212 1411 1383 761 760 1392 1394 1403 1410 11 15 19 37 17 50 -4 18
-245 -218 -1422 -1393z"/>
<path d="M3796 1350 c-724 -723 -1322 -1323 -1327 -1332 -8 -15 -5 -18 18 -18
23 0 225 197 1311 1283 706 705 1292 1294 1303 1310 11 15 19 37 17 50 -4 18
-227 -201 -1322 -1293z"/>
<path d="M3896 1250 c-669 -668 -1222 -1223 -1227 -1232 -8 -15 -5 -18 18 -18
23 0 210 183 1211 1182 651 651 1192 1195 1203 1211 11 15 19 37 17 50 -4 18
-210 -183 -1222 -1193z"/>
<path d="M3996 1150 c-614 -613 -1122 -1123 -1127 -1132 -8 -15 -5 -18 18 -18
23 0 196 168 1111 1082 596 596 1092 1095 1103 1111 11 15 19 37 17 50 -4 18
-193 -166 -1122 -1093z"/>
<path d="M4096 1050 c-559 -558 -1022 -1023 -1027 -1033 -8 -14 -5 -17 18 -17
23 0 181 153 1011 983 541 540 992 994 1003 1010 11 15 19 37 17 50 -4 18
-175 -149 -1022 -993z"/>
<path d="M4196 950 c-504 -503 -922 -923 -927 -932 -8 -15 -5 -18 18 -18 23 0
167 139 911 882 486 486 892 895 903 911 11 15 19 37 17 50 -4 18 -158 -132
-922 -893z"/>
<path d="M4296 850 c-449 -448 -822 -823 -827 -832 -8 -15 -5 -18 18 -18 23 0
152 124 811 783 431 430 792 794 803 810 11 15 19 37 17 50 -4 18 -141 -114
-822 -793z"/>
<path d="M4396 750 c-394 -393 -722 -723 -727 -732 -8 -15 -5 -18 18 -18 23 0
137 110 711 683 376 375 692 694 703 710 11 15 19 37 17 50 -4 18 -124 -97
-722 -693z"/>
<path d="M4496 650 c-339 -338 -622 -623 -627 -632 -8 -15 -5 -18 18 -18 23 0
123 95 611 583 321 320 592 594 603 610 11 15 19 37 17 50 -4 18 -106 -80
-622 -593z"/>
<path d="M4596 550 c-284 -283 -522 -523 -527 -533 -8 -14 -5 -17 18 -17 23 0
108 81 511 483 266 265 492 494 503 510 11 15 19 37 17 50 -4 18 -89 -62 -522
-493z"/>
<path d="M4696 450 c-229 -228 -422 -423 -427 -432 -8 -15 -5 -18 18 -18 22 0
93 66 411 383 211 210 392 394 403 410 11 15 19 37 17 50 -4 18 -72 -45 -422
-393z"/>
<path d="M4796 350 c-174 -173 -322 -323 -327 -332 -8 -15 -5 -18 17 -18 23 0
80 52 312 282 156 156 293 295 303 311 11 15 19 37 17 50 -4 18 -54 -28 -322
-293z"/>
<path d="M4896 250 c-119 -118 -222 -223 -227 -232 -8 -15 -5 -18 17 -18 21 0
65 37 211 183 205 202 226 227 221 260 -3 19 -37 -11 -222 -193z"/>
<path d="M4996 150 c-136 -133 -149 -150 -111 -150 18 0 49 23 111 82 102 98
127 130 122 161 -3 19 -19 7 -122 -93z"/>
</g>
</svg>
