<?xml version="1.0" standalone="no"?>
<!DOCTYPE svg PUBLIC "-//W3C//DTD SVG 20010904//EN"
 "http://www.w3.org/TR/2001/REC-SVG-20010904/DTD/svg10.dtd">
<svg version="1.0" xmlns="http://www.w3.org/2000/svg"
 width="200.000000pt" height="200.000000pt" viewBox="0 0 200.000000 200.000000"
 preserveAspectRatio="xMidYMid meet">
<metadata>
Created by potrace 1.15, written by Peter Selinger 2001-2017
</metadata>
<g transform="translate(0.000000,200.000000) scale(0.100000,-0.100000)"
fill="#000000" stroke="none">
<path d="M567 1886 c-54 -20 -62 -30 -91 -102 -28 -68 -33 -113 -15 -131 16
-16 -19 -287 -43 -336 l-19 -38 57 -502 c35 -309 62 -514 71 -534 20 -42 90
-88 178 -116 61 -19 92 -22 245 -22 153 0 184 3 245 22 86 27 159 72 178 110
9 17 34 204 66 493 29 256 54 474 56 485 2 11 14 25 26 30 23 11 78 131 78
173 2 62 -82 155 -204 227 -50 29 -64 42 -69 67 -26 129 -280 235 -409 169
-33 -17 -41 -17 -94 -5 -92 22 -212 27 -256 10z m580 -97 c79 -39 113 -82 113
-140 0 -53 -16 -90 -35 -83 -12 5 -14 16 -9 54 9 67 -11 99 -81 134 -31 15
-78 30 -105 33 -44 5 -52 3 -78 -23 -15 -16 -33 -38 -39 -48 -7 -13 -16 -17
-28 -12 -15 6 -15 10 8 48 51 87 132 98 254 37z m-381 -1 l64 -11 -6 -48 c-6
-43 -4 -48 20 -64 14 -9 40 -18 58 -19 27 -1 36 5 60 41 l28 41 88 -35 c48
-19 88 -36 90 -38 1 -1 -3 -24 -10 -50 -12 -46 -12 -47 16 -72 41 -35 95 -29
116 12 8 17 16 32 18 34 4 7 135 -86 165 -117 28 -29 28 -30 8 -37 -49 -15
-279 35 -432 94 -172 66 -360 174 -428 245 l-35 36 58 0 c32 0 87 -5 122 -12z
m-139 -93 c186 -152 604 -315 807 -315 33 0 46 -4 46 -14 0 -25 -30 -46 -64
-46 -114 0 -362 70 -537 152 -188 88 -338 203 -324 247 3 12 9 21 11 21 3 0
30 -20 61 -45z m38 -270 c53 -52 16 -145 -57 -145 -37 1 -59 14 -76 47 -19 35
-14 63 17 94 38 37 82 39 116 4z m236 -44 c37 -38 39 -82 4 -116 -52 -53 -145
-16 -145 57 1 80 85 115 141 59z m-291 -182 c120 -31 334 -44 496 -31 77 7
174 20 216 31 l78 18 -6 -36 c-3 -20 -27 -229 -54 -465 -46 -411 -49 -430 -71
-448 -74 -56 -260 -89 -405 -70 -116 14 -188 37 -225 70 l-30 27 -49 435 c-27
239 -52 450 -54 468 -4 29 -2 33 12 27 9 -4 51 -15 92 -26z"/>
<path d="M617 1133 c-3 -4 11 -190 32 -413 31 -350 38 -405 53 -408 9 -2 18 1
21 5 3 4 -12 190 -32 413 -31 351 -38 405 -53 408 -9 2 -18 -1 -21 -5z"/>
<path d="M1246 1108 c-3 -18 -19 -190 -36 -383 -17 -192 -32 -363 -35 -378 -5
-29 18 -49 35 -31 9 11 82 803 74 815 -12 20 -33 7 -38 -23z"/>
<path d="M824 1096 c-3 -8 2 -174 10 -371 9 -196 16 -377 16 -401 0 -32 5 -46
16 -51 9 -3 19 -1 23 5 8 13 -24 806 -34 821 -9 15 -25 14 -31 -3z"/>
<path d="M1046 1101 c-4 -5 -14 -190 -23 -410 -13 -308 -14 -404 -5 -413 8 -8
15 -8 21 -3 11 11 47 796 38 820 -7 17 -23 20 -31 6z"/>
</g>
</svg>
